TITLE ""
FILE "1Q_t_0210-0219.mp3" MP3
  TRACK 01 AUDIO
    TITLE "1Q_t_0210-0219_01"
    INDEX 01 00:00:00
  TRACK 02 AUDIO
    TITLE "1Q_t_0210-0219_02"
    INDEX 01 00:01:08
  TRACK 03 AUDIO
    TITLE "1Q_t_0210-0219_03"
    INDEX 01 00:01:27
  TRACK 04 AUDIO
    TITLE "1Q_t_0210-0219_04"
    INDEX 01 00:03:69
  TRACK 05 AUDIO
    TITLE "1Q_t_0210-0219_05"
    INDEX 01 00:04:08
  TRACK 06 AUDIO
    TITLE "1Q_t_0210-0219_06"
    INDEX 01 00:07:69
  TRACK 07 AUDIO
    TITLE "1Q_t_0210-0219_07"
    INDEX 01 00:08:47
  TRACK 08 AUDIO
    TITLE "1Q_t_0210-0219_08"
    INDEX 01 00:09:62
  TRACK 09 AUDIO
    TITLE "1Q_t_0210-0219_09"
    INDEX 01 00:10:05
  TRACK 10 AUDIO
    TITLE "1Q_t_0210-0219_10"
    INDEX 01 00:11:30
  TRACK 11 AUDIO
    TITLE "1Q_t_0210-0219_11"
    INDEX 01 00:11:45
  TRACK 12 AUDIO
    TITLE "1Q_t_0210-0219_12"
    INDEX 01 00:15:67
  TRACK 13 AUDIO
    TITLE "1Q_t_0210-0219_13"
    INDEX 01 00:16:43
  TRACK 14 AUDIO
    TITLE "1Q_t_0210-0219_14"
    INDEX 01 00:17:56
  TRACK 15 AUDIO
    TITLE "1Q_t_0210-0219_15"
    INDEX 01 00:17:71
  TRACK 16 AUDIO
    TITLE "1Q_t_0210-0219_16"
    INDEX 01 00:21:58
  TRACK 17 AUDIO
    TITLE "1Q_t_0210-0219_17"
    INDEX 01 00:21:71
  TRACK 18 AUDIO
    TITLE "1Q_t_0210-0219_18"
    INDEX 01 00:28:50
  TRACK 19 AUDIO
    TITLE "1Q_t_0210-0219_19"
    INDEX 01 00:29:28
  TRACK 20 AUDIO
    TITLE "1Q_t_0210-0219_20"
    INDEX 01 00:30:37
  TRACK 21 AUDIO
    TITLE "1Q_t_0210-0219_21"
    INDEX 01 00:30:51
  TRACK 22 AUDIO
    TITLE "1Q_t_0210-0219_22"
    INDEX 01 00:33:45
  TRACK 23 AUDIO
    TITLE "1Q_t_0210-0219_23"
    INDEX 01 00:33:61
  TRACK 24 AUDIO
    TITLE "1Q_t_0210-0219_24"
    INDEX 01 00:40:00
  TRACK 25 AUDIO
    TITLE "1Q_t_0210-0219_25"
    INDEX 01 00:40:55
  TRACK 26 AUDIO
    TITLE "1Q_t_0210-0219_26"
    INDEX 01 00:41:68
  TRACK 27 AUDIO
    TITLE "1Q_t_0210-0219_27"
    INDEX 01 00:42:09
  TRACK 28 AUDIO
    TITLE "1Q_t_0210-0219_28"
    INDEX 01 00:50:08
  TRACK 29 AUDIO
    TITLE "1Q_t_0210-0219_29"
    INDEX 01 00:50:24
  TRACK 30 AUDIO
    TITLE "1Q_t_0210-0219_30"
    INDEX 01 00:56:66
  TRACK 31 AUDIO
    TITLE "1Q_t_0210-0219_31"
    INDEX 01 00:57:42
  TRACK 32 AUDIO
    TITLE "1Q_t_0210-0219_32"
    INDEX 01 00:58:45
  TRACK 33 AUDIO
    TITLE "1Q_t_0210-0219_33"
    INDEX 01 00:58:59
  TRACK 34 AUDIO
    TITLE "1Q_t_0210-0219_34"
    INDEX 01 01:02:07
  TRACK 35 AUDIO
    TITLE "1Q_t_0210-0219_35"
    INDEX 01 01:02:23
  TRACK 36 AUDIO
    TITLE "1Q_t_0210-0219_36"
    INDEX 01 01:08:39
  TRACK 37 AUDIO
    TITLE "1Q_t_0210-0219_37"
    INDEX 01 01:09:19
  TRACK 38 AUDIO
    TITLE "1Q_t_0210-0219_38"
    INDEX 01 01:10:40
  TRACK 39 AUDIO
    TITLE "1Q_t_0210-0219_39"
    INDEX 01 01:10:56
  TRACK 40 AUDIO
    TITLE "1Q_t_0210-0219_40"
    INDEX 01 01:13:66
  TRACK 41 AUDIO
    TITLE "1Q_t_0210-0219_41"
    INDEX 01 01:14:05
  TRACK 42 AUDIO
    TITLE "1Q_t_0210-0219_42"
    INDEX 01 01:19:37
  TRACK 43 AUDIO
    TITLE "1Q_t_0210-0219_43"
    INDEX 01 01:20:15
  TRACK 44 AUDIO
    TITLE "1Q_t_0210-0219_44"
    INDEX 01 01:21:32
  TRACK 45 AUDIO
    TITLE "1Q_t_0210-0219_45"
    INDEX 01 01:21:50
  TRACK 46 AUDIO
    TITLE "1Q_t_0210-0219_46"
    INDEX 01 01:24:66
  TRACK 47 AUDIO
    TITLE "1Q_t_0210-0219_47"
    INDEX 01 01:25:05
  TRACK 48 AUDIO
    TITLE "1Q_t_0210-0219_48"
    INDEX 01 01:31:50
  TRACK 49 AUDIO
    TITLE "1Q_t_0210-0219_49"
    INDEX 01 01:32:32
  TRACK 50 AUDIO
    TITLE "1Q_t_0210-0219_50"
    INDEX 01 01:33:63
  TRACK 51 AUDIO
    TITLE "1Q_t_0210-0219_51"
    INDEX 01 01:34:02
  TRACK 52 AUDIO
    TITLE "1Q_t_0210-0219_52"
    INDEX 01 01:39:13
  TRACK 53 AUDIO
    TITLE "1Q_t_0210-0219_53"
    INDEX 01 01:39:28
  TRACK 54 AUDIO
    TITLE "1Q_t_0210-0219_54"
    INDEX 01 01:45:58
  TRACK 55 AUDIO
    TITLE "1Q_t_0210-0219_55"
    INDEX 01 01:46:38
  TRACK 56 AUDIO
    TITLE "1Q_t_0210-0219_56"
    INDEX 01 01:47:53
  TRACK 57 AUDIO
    TITLE "1Q_t_0210-0219_57"
    INDEX 01 01:47:71
  TRACK 58 AUDIO
    TITLE "1Q_t_0210-0219_58"
    INDEX 01 01:49:42
  TRACK 59 AUDIO
    TITLE "1Q_t_0210-0219_59"
    INDEX 01 01:49:56
  TRACK 60 AUDIO
    TITLE "1Q_t_0210-0219_60"
    INDEX 01 01:54:18
